<svg xmlns="http://www.w3.org/2000/svg" xmlns:xlink="http://www.w3.org/1999/xlink" width="20"
  zoomAndPan="magnify" viewBox="1000 1000 20 20" height="30"
  preserveAspectRatio="xMidYMid meet" version="1.0">
  <defs>
    <g />
    <clipPath id="530c578176">
      <path
        d="M 38.441406 37.6875 L 110.292969 37.6875 L 110.292969 146.21875 L 38.441406 146.21875 Z M 38.441406 37.6875 "
        clip-rule="nonzero" />
    </clipPath>
  </defs>
  <g clip-path="url(#530c578176)">
    <path fill="#8c52ff"
      d="M 72.613281 130.21875 C 73.210938 130.21875 73.699219 129.734375 73.699219 129.136719 L 73.699219 89.539062 L 93.867188 137.421875 C 94.042969 137.835938 94.445312 138.085938 94.867188 138.085938 C 95.007812 138.085938 95.148438 138.058594 95.285156 138 C 95.839844 137.769531 96.097656 137.132812 95.867188 136.582031 L 74.246094 85.253906 L 82.433594 85.253906 C 83.03125 85.253906 83.515625 84.769531 83.515625 84.171875 C 83.515625 83.574219 83.03125 83.089844 82.433594 83.089844 L 62.792969 83.089844 C 62.195312 83.089844 61.710938 83.574219 61.710938 84.171875 C 61.710938 84.769531 62.195312 85.253906 62.792969 85.253906 L 70.980469 85.253906 L 49.359375 136.582031 C 49.128906 137.132812 49.386719 137.769531 49.941406 138 C 50.078125 138.058594 50.21875 138.085938 50.359375 138.085938 C 50.78125 138.085938 51.183594 137.835938 51.359375 137.421875 L 71.527344 89.539062 L 71.527344 129.136719 C 71.527344 129.734375 72.015625 130.21875 72.613281 130.21875 Z M 95.414062 52.78125 C 95.414062 50.378906 93.460938 48.429688 91.054688 48.429688 C 88.652344 48.429688 86.699219 50.378906 86.699219 52.78125 C 86.699219 55.183594 88.652344 57.128906 91.054688 57.128906 C 93.460938 57.128906 95.414062 55.183594 95.414062 52.78125 Z M 72.613281 45.820312 C 66.316406 45.820312 61.214844 50.917969 61.214844 57.207031 C 54.867188 57.207031 49.730469 62.386719 49.816406 68.746094 C 49.894531 75 55.117188 79.976562 61.382812 79.976562 L 83.84375 79.976562 C 90.109375 79.976562 95.328125 75 95.410156 68.746094 C 95.492188 62.386719 90.359375 57.207031 84.011719 57.207031 C 84.011719 50.917969 78.910156 45.820312 72.613281 45.820312 Z M 109.890625 57.421875 L 97.53125 66.152344 C 97.671875 66.929688 97.746094 67.734375 97.746094 68.554688 C 97.746094 69.375 97.671875 70.175781 97.53125 70.957031 L 109.890625 79.6875 C 110.0625 79.808594 110.300781 79.6875 110.300781 79.472656 L 110.300781 57.636719 C 110.300781 57.421875 110.0625 57.300781 109.890625 57.421875 Z M 107.578125 85.105469 L 107.578125 145.179688 C 107.578125 145.730469 107.128906 146.179688 106.578125 146.179688 L 39.445312 146.179688 C 38.890625 146.179688 38.445312 145.730469 38.445312 145.179688 L 38.445312 38.726562 C 38.445312 38.175781 38.890625 37.730469 39.445312 37.730469 L 106.578125 37.730469 C 107.128906 37.730469 107.578125 38.175781 107.578125 38.726562 L 107.578125 50.296875 C 107.578125 50.851562 107.128906 51.296875 106.578125 51.296875 C 106.023438 51.296875 105.578125 50.851562 105.578125 50.296875 L 105.578125 39.726562 L 40.445312 39.726562 L 40.445312 144.179688 L 105.578125 144.179688 L 105.578125 85.105469 C 105.578125 84.554688 106.023438 84.105469 106.578125 84.105469 C 107.128906 84.105469 107.578125 84.554688 107.578125 85.105469 "
      fill-opacity="1" fill-rule="nonzero" />
  </g>
  <g fill="#ffffff" fill-opacity="1">
    <g transform="translate(128.492956, 78.590687)">
      <g>
        <path
          d="M 20.125 -30.921875 L 20.125 -24.734375 L 9.296875 -24.734375 L 9.296875 -18.59375 L 19.296875 -18.59375 L 19.296875 -12.40625 L 9.296875 -12.40625 L 9.296875 0 L 2.25 0 L 2.25 -30.921875 Z M 20.125 -30.921875 " />
      </g>
    </g>
  </g>
  <g fill="#ffffff" fill-opacity="1">
    <g transform="translate(150.458026, 78.590687)">
      <g>
        <path
          d="M 9.296875 -30.921875 L 9.296875 0 L 2.25 0 L 2.25 -30.921875 Z M 9.296875 -30.921875 " />
      </g>
    </g>
  </g>
  <g fill="#ffffff" fill-opacity="1">
    <g transform="translate(162.71509, 78.590687)">
      <g>
        <path
          d="M 9.296875 -30.921875 L 9.296875 -6.1875 L 19.9375 -6.1875 L 19.9375 0 L 2.25 0 L 2.25 -30.921875 Z M 9.296875 -30.921875 " />
      </g>
    </g>
  </g>
  <g fill="#ffffff" fill-opacity="1">
    <g transform="translate(184.605189, 78.590687)">
      <g>
        <path
          d="M 27.8125 0 L 26.34375 -18.328125 L 26.171875 -18.328125 L 19.828125 -0.1875 L 15.625 -0.1875 L 9.296875 -18.328125 L 9.109375 -18.328125 L 7.640625 0 L 0.59375 0 L 3.375 -30.921875 L 10.875 -30.921875 L 17.734375 -13.078125 L 24.59375 -30.921875 L 32.09375 -30.921875 L 34.859375 0 Z M 27.8125 0 " />
      </g>
    </g>
  </g>
  <g fill="#ffffff" fill-opacity="1">
    <g transform="translate(128.492956, 124.996617)">
      <g>
        <path
          d="M 9.296875 -12.40625 L 9.296875 0 L 2.25 0 L 2.25 -30.921875 L 9.296875 -30.921875 L 9.296875 -18.59375 L 19.265625 -18.59375 L 19.265625 -30.921875 L 26.3125 -30.921875 L 26.3125 0 L 19.265625 0 L 19.265625 -12.40625 Z M 9.296875 -12.40625 " />
      </g>
    </g>
  </g>
  <g fill="#ffffff" fill-opacity="1">
    <g transform="translate(157.76713, 124.996617)">
      <g>
        <path
          d="M 26.015625 -30.921875 L 26.015625 -10.984375 C 26.015625 -7.179688 24.988281 -4.304688 22.9375 -2.359375 C 20.882812 -0.410156 17.882812 0.5625 13.9375 0.5625 C 9.988281 0.5625 6.988281 -0.410156 4.9375 -2.359375 C 2.894531 -4.304688 1.875 -7.179688 1.875 -10.984375 L 1.875 -30.921875 L 8.921875 -30.921875 L 8.921875 -13.046875 C 8.921875 -10.546875 9.3125 -8.804688 10.09375 -7.828125 C 10.882812 -6.859375 12.164062 -6.375 13.9375 -6.375 C 15.71875 -6.375 17 -6.859375 17.78125 -7.828125 C 18.570312 -8.804688 18.96875 -10.546875 18.96875 -13.046875 L 18.96875 -30.921875 Z M 26.015625 -30.921875 " />
      </g>
    </g>
  </g>
  <g fill="#ffffff" fill-opacity="1">
    <g transform="translate(186.366623, 124.996617)">
      <g>
        <path
          d="M 2.25 -30.921875 L 11.84375 -30.921875 C 14.738281 -30.921875 17.046875 -30.300781 18.765625 -29.0625 C 20.492188 -27.832031 21.359375 -25.828125 21.359375 -23.046875 C 21.359375 -19.953125 20.070312 -17.742188 17.5 -16.421875 C 21.90625 -15.640625 24.109375 -13.039062 24.109375 -8.625 C 24.109375 -6.019531 23.207031 -3.929688 21.40625 -2.359375 C 19.601562 -0.785156 17.128906 0 13.984375 0 L 2.25 0 Z M 9.296875 -18.8125 L 9.859375 -18.8125 C 11.429688 -18.8125 12.601562 -19.085938 13.375 -19.640625 C 14.15625 -20.191406 14.546875 -21.09375 14.546875 -22.34375 C 14.546875 -24.4375 12.984375 -25.484375 9.859375 -25.484375 L 9.296875 -25.484375 Z M 9.296875 -5.4375 L 11.5 -5.4375 C 14.957031 -5.4375 16.6875 -6.585938 16.6875 -8.890625 C 16.6875 -10.265625 16.253906 -11.25 15.390625 -11.84375 C 14.523438 -12.445312 13.226562 -12.75 11.5 -12.75 L 9.296875 -12.75 Z M 9.296875 -5.4375 " />
      </g>
    </g>
  </g>
</svg>