<svg xmlns="http://www.w3.org/2000/svg" xmlns:xlink="http://www.w3.org/1999/xlink" width="500"
  zoomAndPan="magnify" viewBox="0 0  374.999991" height="500" preserveAspectRatio="xMidYMid meet"
  version="1.0">
  <defs>
    <g />
    <clipPath id="9cbc20ba2f">
      <path
        d="M 76.773438 133.015625 L 148.773438 133.015625 L 148.773438 241.765625 L 76.773438 241.765625 Z M 76.773438 133.015625 "
        clip-rule="nonzero" />
    </clipPath>
  </defs>
  <g clip-path="url(#9cbc20ba2f)">
    <path fill="#8c52ff"
      d="M 111.015625 225.734375 C 111.617188 225.734375 112.101562 225.25 112.101562 224.648438 L 112.101562 184.96875 L 132.3125 232.949219 C 132.488281 233.367188 132.890625 233.617188 133.3125 233.617188 C 133.453125 233.617188 133.597656 233.585938 133.734375 233.53125 C 134.289062 233.296875 134.546875 232.660156 134.316406 232.109375 L 112.652344 180.675781 L 120.855469 180.675781 C 121.457031 180.675781 121.941406 180.191406 121.941406 179.59375 C 121.941406 178.992188 121.457031 178.507812 120.855469 178.507812 L 101.175781 178.507812 C 100.578125 178.507812 100.089844 178.992188 100.089844 179.59375 C 100.089844 180.191406 100.578125 180.675781 101.175781 180.675781 L 109.382812 180.675781 L 87.71875 232.109375 C 87.484375 232.660156 87.742188 233.296875 88.296875 233.53125 C 88.433594 233.585938 88.578125 233.617188 88.71875 233.617188 C 89.140625 233.617188 89.542969 233.367188 89.71875 232.949219 L 109.929688 184.96875 L 109.929688 224.648438 C 109.929688 225.25 110.417969 225.734375 111.015625 225.734375 Z M 133.863281 148.136719 C 133.863281 145.730469 131.90625 143.777344 129.496094 143.777344 C 127.085938 143.777344 125.132812 145.730469 125.132812 148.136719 C 125.132812 150.542969 127.085938 152.496094 129.496094 152.496094 C 131.90625 152.496094 133.863281 150.542969 133.863281 148.136719 Z M 111.015625 141.164062 C 104.707031 141.164062 99.59375 146.273438 99.59375 152.574219 C 93.234375 152.574219 88.089844 157.761719 88.171875 164.132812 C 88.253906 170.402344 93.484375 175.390625 99.761719 175.390625 L 122.269531 175.390625 C 128.546875 175.390625 133.777344 170.402344 133.859375 164.132812 C 133.941406 157.761719 128.796875 152.574219 122.4375 152.574219 C 122.4375 146.273438 117.324219 141.164062 111.015625 141.164062 Z M 148.371094 152.789062 L 135.984375 161.535156 C 136.128906 162.316406 136.199219 163.121094 136.199219 163.945312 C 136.199219 164.765625 136.128906 165.570312 135.984375 166.351562 L 148.371094 175.097656 C 148.542969 175.222656 148.78125 175.097656 148.78125 174.886719 L 148.78125 153 C 148.78125 152.789062 148.542969 152.664062 148.371094 152.789062 Z M 146.050781 180.527344 L 146.050781 240.722656 C 146.050781 241.277344 145.601562 241.726562 145.046875 241.726562 L 77.78125 241.726562 C 77.226562 241.726562 76.777344 241.277344 76.777344 240.722656 L 76.777344 134.054688 C 76.777344 133.503906 77.226562 133.054688 77.78125 133.054688 L 145.046875 133.054688 C 145.601562 133.054688 146.050781 133.503906 146.050781 134.054688 L 146.050781 145.648438 C 146.050781 146.203125 145.601562 146.652344 145.046875 146.652344 C 144.496094 146.652344 144.046875 146.203125 144.046875 145.648438 L 144.046875 135.058594 L 78.78125 135.058594 L 78.78125 239.722656 L 144.046875 239.722656 L 144.046875 180.527344 C 144.046875 179.976562 144.496094 179.527344 145.046875 179.527344 C 145.601562 179.527344 146.050781 179.976562 146.050781 180.527344 "
      fill-opacity="1" fill-rule="nonzero" />
  </g>
  <g fill="#ffffff" fill-opacity="1">
    <g transform="translate(160.631713, 173.999989)">
      <g>
        <path
          d="M 20.171875 -30.984375 L 20.171875 -24.796875 L 9.3125 -24.796875 L 9.3125 -18.625 L 19.34375 -18.625 L 19.34375 -12.4375 L 9.3125 -12.4375 L 9.3125 0 L 2.25 0 L 2.25 -30.984375 Z M 20.171875 -30.984375 " />
      </g>
    </g>
  </g>
  <g fill="#ffffff" fill-opacity="1">
    <g transform="translate(182.641307, 173.999989)">
      <g>
        <path d="M 9.3125 -30.984375 L 9.3125 0 L 2.25 0 L 2.25 -30.984375 Z M 9.3125 -30.984375 " />
      </g>
    </g>
  </g>
  <g fill="#ffffff" fill-opacity="1">
    <g transform="translate(194.923217, 173.999989)">
      <g>
        <path
          d="M 9.3125 -30.984375 L 9.3125 -6.203125 L 19.984375 -6.203125 L 19.984375 0 L 2.25 0 L 2.25 -30.984375 Z M 9.3125 -30.984375 " />
      </g>
    </g>
  </g>
  <g fill="#ffffff" fill-opacity="1">
    <g transform="translate(216.857689, 173.999989)">
      <g>
        <path
          d="M 27.875 0 L 26.40625 -18.375 L 26.21875 -18.375 L 19.875 -0.1875 L 15.65625 -0.1875 L 9.3125 -18.375 L 9.125 -18.375 L 7.65625 0 L 0.59375 0 L 3.375 -30.984375 L 10.890625 -30.984375 L 17.765625 -13.109375 L 24.640625 -30.984375 L 32.15625 -30.984375 L 34.9375 0 Z M 27.875 0 " />
      </g>
    </g>
  </g>
  <g fill="#ffffff" fill-opacity="1">
    <g transform="translate(160.631713, 220.499986)">
      <g>
        <path
          d="M 9.3125 -12.4375 L 9.3125 0 L 2.25 0 L 2.25 -30.984375 L 9.3125 -30.984375 L 9.3125 -18.625 L 19.3125 -18.625 L 19.3125 -30.984375 L 26.375 -30.984375 L 26.375 0 L 19.3125 0 L 19.3125 -12.4375 Z M 9.3125 -12.4375 " />
      </g>
    </g>
  </g>
  <g fill="#ffffff" fill-opacity="1">
    <g transform="translate(189.965227, 220.499986)">
      <g>
        <path
          d="M 26.0625 -30.984375 L 26.0625 -11 C 26.0625 -7.195312 25.035156 -4.316406 22.984375 -2.359375 C 20.929688 -0.410156 17.925781 0.5625 13.96875 0.5625 C 10.007812 0.5625 7.003906 -0.410156 4.953125 -2.359375 C 2.898438 -4.316406 1.875 -7.195312 1.875 -11 L 1.875 -30.984375 L 8.9375 -30.984375 L 8.9375 -13.078125 C 8.9375 -10.566406 9.332031 -8.820312 10.125 -7.84375 C 10.914062 -6.875 12.195312 -6.390625 13.96875 -6.390625 C 15.75 -6.390625 17.03125 -6.875 17.8125 -7.84375 C 18.601562 -8.820312 19 -10.566406 19 -13.078125 L 19 -30.984375 Z M 26.0625 -30.984375 " />
      </g>
    </g>
  </g>
  <g fill="#ffffff" fill-opacity="1">
    <g transform="translate(218.622693, 220.499986)">
      <g>
        <path
          d="M 2.25 -30.984375 L 11.875 -30.984375 C 14.78125 -30.984375 17.09375 -30.363281 18.8125 -29.125 C 20.539062 -27.882812 21.40625 -25.875 21.40625 -23.09375 C 21.40625 -19.988281 20.117188 -17.773438 17.546875 -16.453125 C 21.953125 -15.671875 24.15625 -13.066406 24.15625 -8.640625 C 24.15625 -6.035156 23.253906 -3.941406 21.453125 -2.359375 C 19.648438 -0.785156 17.171875 0 14.015625 0 L 2.25 0 Z M 9.3125 -18.859375 L 9.875 -18.859375 C 11.457031 -18.859375 12.632812 -19.132812 13.40625 -19.6875 C 14.1875 -20.238281 14.578125 -21.140625 14.578125 -22.390625 C 14.578125 -24.492188 13.007812 -25.546875 9.875 -25.546875 L 9.3125 -25.546875 Z M 9.3125 -5.453125 L 11.53125 -5.453125 C 14.988281 -5.453125 16.71875 -6.601562 16.71875 -8.90625 C 16.71875 -10.28125 16.285156 -11.265625 15.421875 -11.859375 C 14.554688 -12.460938 13.257812 -12.765625 11.53125 -12.765625 L 9.3125 -12.765625 Z M 9.3125 -5.453125 " />
      </g>
    </g>
  </g>
</svg>